<?xml version="1.0" encoding="utf-8"?>
<!-- Generator: Adobe Illustrator 23.0.3, SVG Export Plug-In . SVG Version: 6.00 Build 0)  -->
<svg version="1.1" id="Capa_1" xmlns="http://www.w3.org/2000/svg" xmlns:xlink="http://www.w3.org/1999/xlink" x="0px" y="0px"
	 viewBox="0 0 100 100" style="enable-background:new 0 0 100 100;" xml:space="preserve">
<style type="text/css">
	.st0{fill:#00ff32;}
</style>
<path class="st0" d="M95,55H20c-2.8,0-5-2.2-5-5s2.2-5,5-5h75c2.8,0,5,2.2,5,5S97.8,55,95,55z M95,70c0-2.8-2.2-5-5-5H25
	c-2.8,0-5,2.2-5,5s2.2,5,5,5h65C92.8,75,95,72.8,95,70z M95,30c0-2.8-2.2-5-5-5H25c-2.8,0-5,2.2-5,5s2.2,5,5,5h65
	C92.8,35,95,32.8,95,30z M10,25c-2.8,0-5,2.2-5,5s2.2,5,5,5s5-2.2,5-5S12.8,25,10,25z M80,10c0-2.8-2.2-5-5-5H40c-2.8,0-5,2.2-5,5
	s2.2,5,5,5h35C77.8,15,80,12.8,80,10z M25,5c-2.8,0-5,2.2-5,5s2.2,5,5,5s5-2.2,5-5S27.8,5,25,5z M80,90c0-2.8-2.2-5-5-5H40
	c-2.8,0-5,2.2-5,5s2.2,5,5,5h35C77.8,95,80,92.8,80,90z M25,85c-2.8,0-5,2.2-5,5s2.2,5,5,5s5-2.2,5-5S27.8,85,25,85z M5,45
	c-2.8,0-5,2.2-5,5s2.2,5,5,5s5-2.2,5-5S7.8,45,5,45z M10,65c-2.8,0-5,2.2-5,5s2.2,5,5,5s5-2.2,5-5S12.8,65,10,65z"/>
</svg>
