<?xml version="1.0" encoding="utf-8"?>
<!-- Generator: Adobe Illustrator 23.0.3, SVG Export Plug-In . SVG Version: 6.00 Build 0)  -->
<svg version="1.1" id="Capa_1" xmlns="http://www.w3.org/2000/svg" xmlns:xlink="http://www.w3.org/1999/xlink" x="0px" y="0px"
	 viewBox="0 0 100 100" style="enable-background:new 0 0 100 100;" xml:space="preserve">
<style type="text/css">
	.st0{fill:#00ff32;}
</style>
<path class="st0" d="M50,10c5.5,0,10,4.5,10,10s-4.5,10-10,10s-10-4.5-10-10S44.5,10,50,10 M50,0C39,0,30,9,30,20s9,20,20,20
	c11,0,20-9,20-20S61,0,50,0L50,0z M50,15c-2.8,0-5,2.2-5,5s2.2,5,5,5c2.8,0,5-2.2,5-5S52.8,15,50,15z M70,77.5
	c0-1.4-1.1-2.5-2.5-2.5h-35c-1.4,0-2.5,1.1-2.5,2.5s1.1,2.5,2.5,2.5h35C68.9,80,70,78.9,70,77.5z M77.5,65c0-1.4-1.1-2.5-2.5-2.5H25
	c-1.4,0-2.5,1.1-2.5,2.5s1.1,2.5,2.5,2.5h50C76.4,67.5,77.5,66.4,77.5,65z M77.5,52.5c0-1.4-1.1-2.5-2.5-2.5H25
	c-1.4,0-2.5,1.1-2.5,2.5S23.6,55,25,55h50C76.4,55,77.5,53.9,77.5,52.5z M100,50c0-14.3-6.2-28-16.9-37.5C81,10.7,77.8,10.9,76,13
	c-1.8,2.1-1.6,5.2,0.4,7.1C85.1,27.6,90,38.5,90,50c0,22.1-17.9,40-40,40S10,72.1,10,50c0-11.5,4.9-22.4,13.5-30
	c2.1-1.8,2.3-5,0.4-7.1c-1.8-2.1-5-2.3-7.1-0.4C6.2,22,0,35.7,0,50c0,27.6,22.4,50,50,50C77.6,100,100,77.6,100,50z"/>
</svg>
