<?xml version="1.0" encoding="utf-8"?>
<!-- Generator: Adobe Illustrator 23.0.3, SVG Export Plug-In . SVG Version: 6.00 Build 0)  -->
<svg version="1.1" id="Capa_1" xmlns="http://www.w3.org/2000/svg" xmlns:xlink="http://www.w3.org/1999/xlink" x="0px" y="0px"
	 viewBox="0 0 100 100" style="enable-background:new 0 0 100 100;" xml:space="preserve">
<style type="text/css">
	.st0{fill:#00ff32;}
</style>
<path class="st0" d="M67.5,75c1.4,0,2.5,1.1,2.5,2.5S68.9,80,67.5,80h-35c-1.4,0-2.5-1.1-2.5-2.5s1.1-2.5,2.5-2.5H67.5z M77.5,65
	c0-1.4-1.1-2.5-2.5-2.5H25c-1.4,0-2.5,1.1-2.5,2.5s1.1,2.5,2.5,2.5h50C76.4,67.5,77.5,66.4,77.5,65z M50,20c5.5,0,10-4.5,10-10
	c0-5.5-4.5-10-10-10c-5.5,0-10,4.5-10,10C40,15.5,44.5,20,50,20z M32.5,42.5c2.8,0,5-2.2,5-5c0-1.8,0.4-3.6,1.2-5.2
	C42.2,34,46,35,50,35c4,0,7.8-1,11.3-2.7c0.8,1.6,1.2,3.4,1.2,5.2c0,2.8,2.2,5,5,5s5-2.2,5-5c0-5.6-2.1-11-5.9-15.2c0,0,0,0,0,0
	c0,0,0,0,0,0c-0.1-0.1-0.1-0.2-0.2-0.2c-0.1-0.1-0.2-0.1-0.2-0.2c-0.1-0.1-0.3-0.2-0.4-0.3c-0.1-0.1-0.3-0.2-0.4-0.3
	C65.1,21.1,65,21,64.8,21c-0.1-0.1-0.3-0.1-0.5-0.2c-0.1-0.1-0.3-0.1-0.4-0.1c-0.2,0-0.3-0.1-0.5-0.1c-0.2,0-0.3,0-0.5-0.1
	c-0.2,0-0.3,0-0.5,0c-0.2,0-0.3,0-0.5,0c-0.2,0-0.3,0.1-0.5,0.1c-0.2,0-0.3,0.1-0.5,0.1c-0.2,0.1-0.3,0.1-0.5,0.2
	c-0.1,0.1-0.3,0.1-0.4,0.2c-0.2,0.1-0.3,0.2-0.4,0.3c-0.1,0.1-0.2,0.1-0.3,0.2c-2.7,2.2-6,3.4-9.5,3.4s-6.8-1.2-9.5-3.4
	c-0.1-0.1-0.2-0.1-0.3-0.2c-0.1-0.1-0.3-0.2-0.4-0.3c-0.1-0.1-0.3-0.1-0.4-0.2c-0.2-0.1-0.3-0.1-0.5-0.2c-0.2-0.1-0.3-0.1-0.5-0.1
	c-0.2,0-0.3-0.1-0.5-0.1c-0.2,0-0.3,0-0.5,0c-0.2,0-0.3,0-0.5,0c-0.2,0-0.3,0-0.5,0.1c-0.2,0-0.3,0.1-0.5,0.1
	c-0.2,0-0.3,0.1-0.4,0.1c-0.2,0.1-0.3,0.1-0.5,0.2c-0.1,0.1-0.3,0.2-0.4,0.2c-0.1,0.1-0.3,0.2-0.4,0.3c-0.1,0.1-0.3,0.2-0.4,0.3
	c-0.1,0.1-0.2,0.1-0.2,0.2c-0.1,0.1-0.1,0.2-0.2,0.2c0,0,0,0,0,0c0,0,0,0,0,0c-3.8,4.2-5.9,9.5-5.9,15.2
	C27.5,40.3,29.7,42.5,32.5,42.5z M75,50H25c-1.4,0-2.5,1.1-2.5,2.5S23.6,55,25,55h50c1.4,0,2.5-1.1,2.5-2.5S76.4,50,75,50z
	 M83.1,12.5C81,10.7,77.8,10.9,76,13c-1.8,2.1-1.6,5.2,0.4,7.1C85.1,27.6,90,38.5,90,50c0,22.1-17.9,40-40,40S10,72.1,10,50
	c0-11.5,4.9-22.4,13.5-30c2.1-1.8,2.3-5,0.4-7.1c-1.8-2.1-5-2.3-7.1-0.4C6.2,22,0,35.7,0,50c0,27.6,22.4,50,50,50s50-22.4,50-50
	C100,35.7,93.8,22,83.1,12.5z"/>
</svg>
