<?xml version="1.0" encoding="utf-8"?>
<!-- Generator: Adobe Illustrator 23.0.3, SVG Export Plug-In . SVG Version: 6.00 Build 0)  -->
<svg version="1.1" id="Capa_1" xmlns="http://www.w3.org/2000/svg" xmlns:xlink="http://www.w3.org/1999/xlink" x="0px" y="0px"
	 viewBox="0 0 100 100" style="enable-background:new 0 0 100 100;" xml:space="preserve">
<style type="text/css">
	.st0{fill:#00ff32;}
</style>
<path class="st0" d="M50,45c-2.8,0-5,2.2-5,5s2.2,5,5,5s5-2.2,5-5S52.8,45,50,45z M73,69.4L56.8,53.2c-0.7,1.5-2,2.8-3.5,3.5
	L69.4,73c0.5,0.5,1.1,0.7,1.8,0.7s1.3-0.2,1.8-0.7C74,72,74,70.4,73,69.4z M55,44.4V30c0-2.8-2.2-5-5-5s-5,2.2-5,5v14.4
	c1.3-1.2,3.1-1.9,5-1.9C51.9,42.5,53.7,43.2,55,44.4z M27.7,61.4c-0.6,0.3-0.8,1.1-0.5,1.7c0.2,0.4,0.7,0.6,1.1,0.6
	c0.2,0,0.4-0.1,0.6-0.2l15.3-8.8c-0.5-0.6-1-1.4-1.2-2.2L27.7,61.4z M51.3,20v-5c0-0.7-0.6-1.3-1.3-1.3s-1.3,0.6-1.3,1.3v5
	c0,0.7,0.6,1.3,1.3,1.3S51.3,20.7,51.3,20z M51.3,85v-5c0-0.7-0.6-1.3-1.3-1.3s-1.3,0.6-1.3,1.3v5c0,0.7,0.6,1.3,1.3,1.3
	S51.3,85.7,51.3,85z M66.1,24.6l2.5-4.3c0.3-0.6,0.1-1.4-0.5-1.7c-0.6-0.3-1.4-0.1-1.7,0.5l-2.5,4.3c-0.3,0.6-0.1,1.4,0.5,1.7
	c0.2,0.1,0.4,0.2,0.6,0.2C65.4,25.3,65.9,25,66.1,24.6z M33.6,80.9l2.5-4.3c0.3-0.6,0.1-1.4-0.5-1.7c-0.6-0.3-1.4-0.1-1.7,0.5
	l-2.5,4.3c-0.3,0.6-0.1,1.4,0.5,1.7c0.2,0.1,0.4,0.2,0.6,0.2C32.9,81.6,33.4,81.3,33.6,80.9z M35.6,25.1c0.6-0.3,0.8-1.1,0.5-1.7
	l-2.5-4.3c-0.3-0.6-1.1-0.8-1.7-0.5c-0.6,0.3-0.8,1.1-0.5,1.7l2.5,4.3c0.2,0.4,0.7,0.6,1.1,0.6C35.2,25.3,35.4,25.2,35.6,25.1z
	 M68.1,81.4c0.6-0.3,0.8-1.1,0.5-1.7l-2.5-4.3c-0.3-0.6-1.1-0.8-1.7-0.5c-0.6,0.3-0.8,1.1-0.5,1.7l2.5,4.3c0.2,0.4,0.7,0.6,1.1,0.6
	C67.7,81.6,67.9,81.5,68.1,81.4z M25.1,35.6c0.3-0.6,0.1-1.4-0.5-1.7l-4.3-2.5c-0.6-0.3-1.4-0.1-1.7,0.5c-0.3,0.6-0.1,1.4,0.5,1.7
	l4.3,2.5c0.2,0.1,0.4,0.2,0.6,0.2C24.4,36.3,24.9,36,25.1,35.6z M81.4,68.1c0.3-0.6,0.1-1.4-0.5-1.7l-4.3-2.5
	c-0.6-0.3-1.4-0.1-1.7,0.5c-0.3,0.6-0.1,1.4,0.5,1.7l4.3,2.5c0.2,0.1,0.4,0.2,0.6,0.2C80.7,68.8,81.2,68.5,81.4,68.1z M21.3,50
	c0-0.7-0.6-1.3-1.3-1.3h-5c-0.7,0-1.3,0.6-1.3,1.3s0.6,1.3,1.3,1.3h5C20.7,51.3,21.3,50.7,21.3,50z M86.3,50c0-0.7-0.6-1.3-1.3-1.3
	h-5c-0.7,0-1.3,0.6-1.3,1.3s0.6,1.3,1.3,1.3h5C85.7,51.3,86.3,50.7,86.3,50z M27.3,70.2v15c0,2.8-2.2,5-5,5h-15c-2.8,0-5-2.2-5-5
	s2.2-5,5-5h2.9C3.6,71.6,0,61.1,0,50c0-13.4,5.2-25.9,14.6-35.4C25.5,3.8,40.6-1.4,55.9,0.3c2.7,0.3,4.7,2.8,4.4,5.5
	s-2.8,4.7-5.5,4.4c-12.2-1.4-24.3,2.7-33,11.4C14.2,29.3,10,39.3,10,50c0,8.4,2.6,16.3,7.3,23v-2.8c0-2.8,2.2-5,5-5
	S27.3,67.5,27.3,70.2z M100,50c0,13.4-5.2,25.9-14.6,35.4C75.9,94.8,63.3,100,50.1,100c-2,0-3.9-0.1-5.9-0.3
	c-2.7-0.3-4.7-2.8-4.4-5.5c0.3-2.7,2.8-4.7,5.5-4.4c12.2,1.4,24.3-2.7,33-11.4C85.8,70.7,90,60.7,90,50c0-8.4-2.6-16.3-7.3-23v2.8
	c0,2.8-2.2,5-5,5s-5-2.2-5-5v-15c0-2.8,2.2-5,5-5h15c2.8,0,5,2.2,5,5s-2.2,5-5,5h-2.9C96.4,28.4,100,38.9,100,50z"/>
</svg>
