<?xml version="1.0" encoding="utf-8"?>
<!-- Generator: Adobe Illustrator 23.0.3, SVG Export Plug-In . SVG Version: 6.00 Build 0)  -->
<svg version="1.1" id="Capa_1" xmlns="http://www.w3.org/2000/svg" xmlns:xlink="http://www.w3.org/1999/xlink" x="0px" y="0px"
	 viewBox="0 0 100 100" style="enable-background:new 0 0 100 100;" xml:space="preserve">
<style type="text/css">
	.st0{fill:#FFFFFF;}
</style>
<g>
	<path class="st0" d="M100,50c0,5.7-1,11.3-2.9,16.7c-0.7,2-2.6,3.3-4.7,3.3H80V60h8.7c0.8-3.3,1.3-6.6,1.3-10c0-22.1-17.9-40-40-40
		S10,27.9,10,50c0,3.4,0.4,6.7,1.3,10H20v10H7.6c-2.1,0-4-1.3-4.7-3.3C1,61.3,0,55.7,0,50C0,22.4,22.4,0,50,0S100,22.4,100,50z
		 M50,15c-2.8,0-5,2.2-5,5s2.2,5,5,5s5-2.2,5-5S52.8,15,50,15z M67.5,86c-5.4,2.6-11.4,4-17.5,4s-12.1-1.4-17.5-4V47.5h-10V89
		c0,1.8,1,3.4,2.5,4.3c7.6,4.4,16.2,6.7,25,6.7s17.4-2.3,25-6.7c1.5-0.9,2.5-2.5,2.5-4.3V47.5h-10V86z M82.5,40c0-2.8-2.2-5-5-5h-55
		c-2.8,0-5,2.2-5,5s2.2,5,5,5h55C80.3,45,82.5,42.8,82.5,40z"/>
</g>
</svg>
