<?xml version="1.0" encoding="utf-8"?>
<!-- Generator: Adobe Illustrator 23.0.3, SVG Export Plug-In . SVG Version: 6.00 Build 0)  -->
<svg version="1.1" id="Capa_1" xmlns="http://www.w3.org/2000/svg" xmlns:xlink="http://www.w3.org/1999/xlink" x="0px" y="0px"
	 viewBox="0 0 100 100" style="enable-background:new 0 0 100 100;" xml:space="preserve">
<style type="text/css">
	.st0{fill:#00ff32;}
</style>
<path class="st0" d="M15.9,57.3c-4.6,1.4-8.2,2.9-10.7,4.1c1.2-14.8,9.7-28.2,22.6-35.5c-0.2-1.1-0.3-2.2-0.3-3.4
	C27.5,10.1,37.6,0,50,0s22.5,10.1,22.5,22.5c0,1.1-0.1,2.3-0.3,3.4c12.9,7.3,21.4,20.7,22.6,35.5c-2.5-1.2-6.1-2.7-10.7-4.1
	c-2.4-10.6-9.6-19.6-19.7-24.2c-2.4-1.1-3.5-3.8-2.6-6.3c0.5-1.4,0.8-2.8,0.8-4.3C62.5,15.6,56.9,10,50,10s-12.5,5.6-12.5,12.5
	c0,1.5,0.3,2.9,0.8,4.3c0.9,2.5-0.2,5.2-2.6,6.3C25.5,37.6,18.3,46.7,15.9,57.3z M97.8,65.8C97.1,65.4,81.2,55,50,55
	S2.9,65.4,2.2,65.8C0.8,66.8,0,68.3,0,70s0.8,3.2,2.2,4.2c0.5,0.4,10.7,6.9,30.3,9.7c0.2-3.6,1.6-6.9,3.7-9.6
	c-8.1-0.9-14.5-2.6-19.1-4.2c7-2.4,18-5,32.9-5c14.8,0,25.8,2.6,32.9,5c-4.7,1.6-11,3.3-19.1,4.2c2.1,2.7,3.4,6,3.7,9.6
	c19.7-2.7,29.8-9.3,30.3-9.7c1.4-0.9,2.2-2.5,2.2-4.2S99.2,66.8,97.8,65.8z M65,85c0-8.3-6.7-15-15-15s-15,6.7-15,15s6.7,15,15,15
	S65,93.3,65,85z M55,85c0,2.8-2.2,5-5,5s-5-2.2-5-5s2.2-5,5-5S55,82.2,55,85z"/>
</svg>
