<?xml version="1.0" encoding="utf-8"?>
<!-- Generator: Adobe Illustrator 23.0.3, SVG Export Plug-In . SVG Version: 6.00 Build 0)  -->
<svg version="1.1" id="Capa_1" xmlns="http://www.w3.org/2000/svg" xmlns:xlink="http://www.w3.org/1999/xlink" x="0px" y="0px"
	 viewBox="0 0 100 100" style="enable-background:new 0 0 100 100;" xml:space="preserve">
<style type="text/css">
	.st0{fill:#00ff32;}
</style>
<path class="st0" d="M16.5,68.5l-15-15C1.2,53.3,1,53,0.8,52.8c-0.1-0.1-0.1-0.3-0.2-0.4c-0.1-0.2-0.2-0.3-0.3-0.5
	c-0.1-0.2-0.1-0.3-0.2-0.5c0-0.1-0.1-0.3-0.1-0.4c-0.1-0.6-0.1-1.3,0-2c0-0.1,0.1-0.3,0.1-0.4c0-0.2,0.1-0.3,0.2-0.5
	c0.1-0.2,0.2-0.3,0.3-0.5c0.1-0.1,0.1-0.3,0.2-0.4C1,47,1.2,46.7,1.5,46.5l15-15c2-2,5.1-2,7.1,0c2,2,2,5.1,0,7.1L17.1,45H55
	c2.8,0,5,2.2,5,5s-2.2,5-5,5H17.1l6.5,6.5c2,2,2,5.1,0,7.1c-1,1-2.3,1.5-3.5,1.5S17.4,69.5,16.5,68.5z M50,0
	c-9.9,0-19.5,2.9-27.8,8.4c-2.3,1.5-2.9,4.6-1.4,6.9c1.5,2.3,4.6,2.9,6.9,1.4C34.4,12.3,42,10,50,10c22.1,0,40,17.9,40,40
	S72.1,90,50,90c-8,0-15.6-2.3-22.2-6.7c-2.3-1.5-5.4-0.9-6.9,1.4c-1.5,2.3-0.9,5.4,1.4,6.9c8.2,5.5,17.8,8.4,27.8,8.4
	c27.6,0,50-22.4,50-50S77.6,0,50,0z M50,72.5c-3.5,0-6.8-0.8-9.9-2.3c-1.2-0.6-2.7-0.1-3.3,1.1s-0.1,2.7,1.1,3.3
	c3.8,1.9,7.9,2.8,12.1,2.8c15.2,0,27.5-12.3,27.5-27.5S65.2,22.5,50,22.5c-4.2,0-8.3,0.9-12.1,2.8c-1.2,0.6-1.8,2.1-1.1,3.3
	c0.6,1.2,2.1,1.8,3.3,1.1c3.1-1.5,6.4-2.3,9.9-2.3c12.4,0,22.5,10.1,22.5,22.5S62.4,72.5,50,72.5z"/>
</svg>
