<?xml version="1.0" encoding="utf-8"?>
<!-- Generator: Adobe Illustrator 23.0.3, SVG Export Plug-In . SVG Version: 6.00 Build 0)  -->
<svg version="1.1" id="Capa_1" xmlns="http://www.w3.org/2000/svg" xmlns:xlink="http://www.w3.org/1999/xlink" x="0px" y="0px"
	 viewBox="0 0 100 100" style="enable-background:new 0 0 100 100;" xml:space="preserve">
<style type="text/css">
	.st0{fill:#00ff32;}
</style>
<path class="st0" d="M50,60c-5.5,0-10-4.5-10-10s4.5-10,10-10s10,4.5,10,10S55.5,60,50,60z M50,50L50,50L50,50z M44.1,5.4
	c3.9-0.5,7.8-0.5,11.7,0l2.7,10.7c2,0.5,3.8,1.2,5.7,2L60.3,2.6c-0.2-1-1-1.7-2-1.8c-5.6-1-11.1-1-16.6,0c-1,0.2-1.7,0.9-2,1.8
	L35.8,18c1.8-0.8,3.7-1.5,5.7-2L44.1,5.4z M55.9,94.6c-3.9,0.5-7.8,0.5-11.7,0l-2.7-10.7c-2-0.5-3.8-1.2-5.7-2l3.9,15.5
	c0.2,1,1,1.7,2,1.8c2.8,0.5,5.6,0.7,8.3,0.7c2.7,0,5.5-0.2,8.3-0.7c1-0.2,1.7-0.9,2-1.8L64.2,82c-1.8,0.8-3.7,1.5-5.7,2L55.9,94.6z
	 M8.5,32.8c0.7-1.8,1.6-3.6,2.6-5.3c1-1.7,2.1-3.3,3.3-4.9l10.6,3c1.4-1.4,2.9-2.7,4.5-3.9l-15.4-4.3c-0.9-0.3-2,0-2.6,0.8
	c-1.8,2.2-3.4,4.5-4.8,6.8c-1.4,2.4-2.5,4.9-3.5,7.6c-0.3,0.9-0.1,2,0.6,2.6l11.4,11.1c0.2-2,0.6-4,1.1-5.9L8.5,32.8z M84.8,53.7
	c-0.2,2-0.6,4-1.1,5.9l7.9,7.7c-0.7,1.8-1.6,3.6-2.6,5.3c-1,1.7-2.1,3.3-3.3,4.9l-10.6-3c-1.4,1.4-2.9,2.7-4.5,3.9l15.4,4.3
	c0.2,0.1,0.5,0.1,0.7,0.1c0.7,0,1.4-0.3,1.9-0.9c1.8-2.2,3.4-4.5,4.8-6.8c1.4-2.4,2.5-4.9,3.5-7.6c0.3-0.9,0.1-2-0.6-2.6L84.8,53.7z
	 M24.9,74.4l-10.6,3c-1.2-1.6-2.3-3.2-3.3-4.9c-1-1.7-1.8-3.4-2.6-5.3l7.9-7.7c-0.5-1.9-0.9-3.9-1.1-5.9L3.8,64.8
	c-0.7,0.7-0.9,1.7-0.6,2.6c1,2.6,2.1,5.2,3.5,7.6c1.4,2.4,3,4.7,4.8,6.8c0.5,0.6,1.2,0.9,1.9,0.9c0.2,0,0.5,0,0.7-0.1l15.4-4.3
	C27.8,77.1,26.3,75.8,24.9,74.4z M75.1,25.6l10.6-3c1.2,1.6,2.3,3.2,3.3,4.9c1,1.7,1.8,3.4,2.6,5.3l-7.9,7.7
	c0.5,1.9,0.9,3.9,1.1,5.9l11.4-11.1c0.7-0.7,0.9-1.7,0.6-2.6c-1-2.6-2.1-5.2-3.5-7.6c-1.4-2.4-3-4.7-4.8-6.8
	c-0.6-0.8-1.6-1.1-2.6-0.8l-15.4,4.3C72.2,22.9,73.7,24.2,75.1,25.6z M50,82.5c-17.9,0-32.5-14.6-32.5-32.5S32.1,17.5,50,17.5
	S82.5,32.1,82.5,50S67.9,82.5,50,82.5z M50,27.5c-12.4,0-22.5,10.1-22.5,22.5S37.6,72.5,50,72.5S72.5,62.4,72.5,50
	S62.4,27.5,50,27.5z"/>
</svg>
